<svg version="1.1" xmlns="http://www.w3.org/2000/svg" xmlns:xlink="http://www.w3.org/1999/xlink" width="1754" height="1241"><defs><linearGradient id="myGrad" x1="0" x2="1754" y1="0" y2="0" gradientUnits="userSpaceOnUse"><stop stop-color="#0084b0" offset="0"/><stop stop-color="#00a356" offset="1"/></linearGradient></defs><g fill="none" fill-rule="nonzero" stroke="none" stroke-width="none" stroke-linecap="none" stroke-linejoin="miter" stroke-miterlimit="10" stroke-dasharray="" stroke-dashoffset="0" font-family="none" font-weight="none" font-size="none" text-anchor="none" style="mix-blend-mode: normal"><g><text x="967.8275" y="630.5" fill="url(#myGrad)" stroke="none" stroke-width="1" stroke-linecap="butt" font-family="Montserrat" font-weight="bold" font-size="150" text-anchor="middle"><tspan x="967.8275" dy="0">sticker storage</tspan></text><path d="M1120.8275,285.5c0.08131,0.70516 0.16263,1.41033 -0.08754,2.11603c-0.25017,0.7057 -0.83182,1.41194 -1.61459,1.87841c-0.78277,0.46647 -1.76666,0.69317 -2.78115,0.57063c-1.01449,-0.12253 -2.05958,-0.5943 -2.88541,-1.39103c-0.82583,-0.79673 -1.4324,-1.91844 -1.63131,-3.17404c-0.19891,-1.2556 0.00983,-2.64511 0.66049,-3.87938c0.65066,-1.23427 1.74324,-2.31332 3.11459,-2.96822c1.37135,-0.6549 3.02148,-0.88566 4.63525,-0.57063c1.61378,0.31503 3.19121,1.17585 4.38541,2.48084c1.1942,1.30499 2.00518,3.05415 2.20426,4.9374c0.19908,1.88325 -0.21375,3.90058 -1.23344,5.64274c-1.01968,1.74216 -2.64623,3.20916 -4.61459,4.05804c-1.96836,0.84888 -4.27855,1.07965 -6.48936,0.57063c-2.2108,-0.50901 -4.32223,-1.75781 -5.88541,-3.57066c-1.56318,-1.81285 -2.57813,-4.18976 -2.77721,-6.70075c-0.19908,-2.51099 0.41772,-5.15607 1.80639,-7.40609c1.38866,-2.25002 3.5492,-4.10499 6.11459,-5.14785c2.56539,-1.04286 5.53564,-1.27363 8.34346,-0.57063c2.80782,0.70299 5.45321,2.33975 7.38541,4.66047c1.9322,2.32072 3.15122,5.32542 3.35016,8.46411c0.19894,3.13869 -0.6222,6.41137 -2.37933,9.16945c-1.75713,2.75808 -4.45026,5.00156 -7.61459,6.23767c-3.16433,1.23611 -6.79985,1.46484 -10.19756,0.57063c-3.39771,-0.8942 -6.55759,-2.91135 -8.88541,-5.75029c-2.32782,-2.83894 -3.82357,-6.49968 -3.9231,-10.22746c-0.09953,-3.72779 1.19715,-7.52262 3.43769,-10.58013c2.24054,-3.05751 5.42494,-5.37771 9,-6.53888c3.57506,-1.16117 7.54076,-1.16332 11.12461,0c3.58385,1.16332 6.78584,3.4921 9,6.53888c2.21416,3.04678 3.4405,6.81156 3.43769,10.58013c-0.00281,3.76858 -1.23477,7.54096 -3.43769,10.58013c-2.20293,3.03918 -5.37682,5.34516 -9,6.53888c-3.62318,1.19372 -7.69563,1.27519 -11.12461,0c-3.42898,-1.27519 -6.21449,-3.90704 -9,-6.53888c-2.78551,-2.63185 5.8884,-6.60599 14.56231,-10.58013" fill="url(#myGrad)" stroke="url(#myGrad)" stroke-width="0.6" stroke-linecap="round"/><path d="M1120.8275,135.5c0.08131,0.70516 0.16263,1.41033 -0.08754,2.11603c-0.25017,0.7057 -0.83182,1.41194 -1.61459,1.87841c-0.78277,0.46647 -1.76666,0.69317 -2.78115,0.57063c-1.01449,-0.12253 -2.05958,-0.5943 -2.88541,-1.39103c-0.82583,-0.79673 -1.4324,-1.91844 -1.63131,-3.17404c-0.19891,-1.2556 0.00983,-2.64511 0.66049,-3.87938c0.65066,-1.23427 1.74324,-2.31332 3.11459,-2.96822c1.37135,-0.6549 3.02148,-0.88566 4.63525,-0.57063c1.61378,0.31503 3.19121,1.17585 4.38541,2.48084c1.1942,1.30499 2.00518,3.05415 2.20426,4.9374c0.19908,1.88325 -0.21375,3.90058 -1.23344,5.64274c-1.01968,1.74216 -2.64623,3.20916 -4.61459,4.05804c-1.96836,0.84888 -4.27855,1.07965 -6.48936,0.57063c-2.2108,-0.50901 -4.32223,-1.75781 -5.88541,-3.57066c-1.56318,-1.81285 -2.57813,-4.18976 -2.77721,-6.70075c-0.19908,-2.51099 0.41772,-5.15607 1.80639,-7.40609c1.38866,-2.25002 3.5492,-4.10499 6.11459,-5.14785c2.56539,-1.04286 5.53564,-1.27363 8.34346,-0.57063c2.80782,0.70299 5.45321,2.33975 7.38541,4.66047c1.9322,2.32072 3.15122,5.32542 3.35016,8.46411c0.19894,3.13869 -0.6222,6.41137 -2.37933,9.16945c-1.75713,2.75808 -4.45026,5.00156 -7.61459,6.23767c-3.16433,1.23611 -6.79985,1.46484 -10.19756,0.57063c-3.39771,-0.8942 -6.55759,-2.91135 -8.88541,-5.75029c-2.32782,-2.83894 -3.82357,-6.49968 -3.9231,-10.22746c-0.09953,-3.72779 1.19715,-7.52262 3.43769,-10.58013c2.24054,-3.05751 5.42494,-5.37771 9,-6.53888c3.57506,-1.16117 7.54076,-1.16332 11.12461,0c3.58385,1.16332 6.78584,3.4921 9,6.53888c2.21416,3.04678 3.4405,6.81156 3.43769,10.58013c-0.00281,3.76858 -1.23477,7.54096 -3.43769,10.58013c-2.20293,3.03918 -5.37682,5.34516 -9,6.53888c-3.62318,1.19372 -7.69563,1.27519 -11.12461,0c-3.42898,-1.27519 -6.21449,-3.90704 -9,-6.53888c-2.78551,-2.63185 5.8884,-6.60599 14.56231,-10.58013" fill="url(#myGrad)" stroke="url(#myGrad)" stroke-width="0.6" stroke-linecap="round"/><path d="M1120.8275,1035.5c0.08131,0.70516 0.16263,1.41033 -0.08754,2.11603c-0.25017,0.7057 -0.83182,1.41194 -1.61459,1.87841c-0.78277,0.46647 -1.76666,0.69317 -2.78115,0.57063c-1.01449,-0.12253 -2.05958,-0.5943 -2.88541,-1.39103c-0.82583,-0.79673 -1.4324,-1.91844 -1.63131,-3.17404c-0.19891,-1.2556 0.00983,-2.64511 0.66049,-3.87938c0.65066,-1.23427 1.74324,-2.31332 3.11459,-2.96822c1.37135,-0.6549 3.02148,-0.88566 4.63525,-0.57063c1.61378,0.31503 3.19121,1.17585 4.38541,2.48084c1.1942,1.30499 2.00518,3.05415 2.20426,4.9374c0.19908,1.88325 -0.21375,3.90058 -1.23344,5.64274c-1.01968,1.74216 -2.64623,3.20916 -4.61459,4.05804c-1.96836,0.84888 -4.27855,1.07965 -6.48936,0.57063c-2.2108,-0.50901 -4.32223,-1.75781 -5.88541,-3.57066c-1.56318,-1.81285 -2.57813,-4.18976 -2.77721,-6.70075c-0.19908,-2.51099 0.41772,-5.15607 1.80639,-7.40609c1.38866,-2.25002 3.5492,-4.10499 6.11459,-5.14785c2.56539,-1.04286 5.53564,-1.27363 8.34346,-0.57063c2.80782,0.70299 5.45321,2.33975 7.38541,4.66047c1.9322,2.32072 3.15122,5.32542 3.35016,8.46411c0.19894,3.13869 -0.6222,6.41137 -2.37933,9.16945c-1.75713,2.75808 -4.45026,5.00156 -7.61459,6.23767c-3.16433,1.23611 -6.79985,1.46484 -10.19756,0.57063c-3.39771,-0.8942 -6.55759,-2.91135 -8.88541,-5.75029c-2.32782,-2.83894 -3.82357,-6.49968 -3.9231,-10.22746c-0.09953,-3.72779 1.19715,-7.52262 3.43769,-10.58013c2.24054,-3.05751 5.42494,-5.37771 9,-6.53888c3.57506,-1.16117 7.54076,-1.16332 11.12461,0c3.58385,1.16332 6.78584,3.4921 9,6.53888c2.21416,3.04678 3.4405,6.81156 3.43769,10.58013c-0.00281,3.76858 -1.23477,7.54096 -3.43769,10.58013c-2.20293,3.03918 -5.37682,5.34516 -9,6.53888c-3.62318,1.19372 -7.69563,1.27519 -11.12461,0c-3.42898,-1.27519 -6.21449,-3.90704 -9,-6.53888c-2.78551,-2.63185 5.8884,-6.60599 14.56231,-10.58013" fill="url(#myGrad)" stroke="url(#myGrad)" stroke-width="0.6" stroke-linecap="round"/><path d="M1120.8275,885.5c0.08131,0.70516 0.16263,1.41033 -0.08754,2.11603c-0.25017,0.7057 -0.83182,1.41194 -1.61459,1.87841c-0.78277,0.46647 -1.76666,0.69317 -2.78115,0.57063c-1.01449,-0.12253 -2.05958,-0.5943 -2.88541,-1.39103c-0.82583,-0.79673 -1.4324,-1.91844 -1.63131,-3.17404c-0.19891,-1.2556 0.00983,-2.64511 0.66049,-3.87938c0.65066,-1.23427 1.74324,-2.31332 3.11459,-2.96822c1.37135,-0.6549 3.02148,-0.88566 4.63525,-0.57063c1.61378,0.31503 3.19121,1.17585 4.38541,2.48084c1.1942,1.30499 2.00518,3.05415 2.20426,4.9374c0.19908,1.88325 -0.21375,3.90058 -1.23344,5.64274c-1.01968,1.74216 -2.64623,3.20916 -4.61459,4.05804c-1.96836,0.84888 -4.27855,1.07965 -6.48936,0.57063c-2.2108,-0.50901 -4.32223,-1.75781 -5.88541,-3.57066c-1.56318,-1.81285 -2.57813,-4.18976 -2.77721,-6.70075c-0.19908,-2.51099 0.41772,-5.15607 1.80639,-7.40609c1.38866,-2.25002 3.5492,-4.10499 6.11459,-5.14785c2.56539,-1.04286 5.53564,-1.27363 8.34346,-0.57063c2.80782,0.70299 5.45321,2.33975 7.38541,4.66047c1.9322,2.32072 3.15122,5.32542 3.35016,8.46411c0.19894,3.13869 -0.6222,6.41137 -2.37933,9.16945c-1.75713,2.75808 -4.45026,5.00156 -7.61459,6.23767c-3.16433,1.23611 -6.79985,1.46484 -10.19756,0.57063c-3.39771,-0.8942 -6.55759,-2.91135 -8.88541,-5.75029c-2.32782,-2.83894 -3.82357,-6.49968 -3.9231,-10.22746c-0.09953,-3.72779 1.19715,-7.52262 3.43769,-10.58013c2.24054,-3.05751 5.42494,-5.37771 9,-6.53888c3.57506,-1.16117 7.54076,-1.16332 11.12461,0c3.58385,1.16332 6.78584,3.4921 9,6.53888c2.21416,3.04678 3.4405,6.81156 3.43769,10.58013c-0.00281,3.76858 -1.23477,7.54096 -3.43769,10.58013c-2.20293,3.03918 -5.37682,5.34516 -9,6.53888c-3.62318,1.19372 -7.69563,1.27519 -11.12461,0c-3.42898,-1.27519 -6.21449,-3.90704 -9,-6.53888c-2.78551,-2.63185 5.8884,-6.60599 14.56231,-10.58013" fill="url(#myGrad)" stroke="url(#myGrad)" stroke-width="0.6" stroke-linecap="round"/><path d="M220.8275,285.5c0.08131,0.70516 0.16263,1.41033 -0.08754,2.11603c-0.25017,0.7057 -0.83182,1.41194 -1.61459,1.87841c-0.78277,0.46647 -1.76666,0.69317 -2.78115,0.57063c-1.01449,-0.12253 -2.05958,-0.5943 -2.88541,-1.39103c-0.82583,-0.79673 -1.4324,-1.91844 -1.63131,-3.17404c-0.19891,-1.2556 0.00983,-2.64511 0.66049,-3.87938c0.65066,-1.23427 1.74324,-2.31332 3.11459,-2.96822c1.37135,-0.6549 3.02148,-0.88566 4.63525,-0.57063c1.61378,0.31503 3.19121,1.17585 4.38541,2.48084c1.1942,1.30499 2.00518,3.05415 2.20426,4.9374c0.19908,1.88325 -0.21375,3.90058 -1.23344,5.64274c-1.01968,1.74216 -2.64623,3.20916 -4.61459,4.05804c-1.96836,0.84888 -4.27855,1.07965 -6.48936,0.57063c-2.2108,-0.50901 -4.32223,-1.75781 -5.88541,-3.57066c-1.56318,-1.81285 -2.57813,-4.18976 -2.77721,-6.70075c-0.19908,-2.51099 0.41772,-5.15607 1.80639,-7.40609c1.38866,-2.25002 3.5492,-4.10499 6.11459,-5.14785c2.56539,-1.04286 5.53564,-1.27363 8.34346,-0.57063c2.80782,0.70299 5.45321,2.33975 7.38541,4.66047c1.9322,2.32072 3.15122,5.32542 3.35016,8.46411c0.19894,3.13869 -0.6222,6.41137 -2.37933,9.16945c-1.75713,2.75808 -4.45026,5.00156 -7.61459,6.23767c-3.16433,1.23611 -6.79985,1.46484 -10.19756,0.57063c-3.39771,-0.8942 -6.55759,-2.91135 -8.88541,-5.75029c-2.32782,-2.83894 -3.82357,-6.49968 -3.9231,-10.22746c-0.09953,-3.72779 1.19715,-7.52262 3.43769,-10.58013c2.24054,-3.05751 5.42494,-5.37771 9,-6.53888c3.57506,-1.16117 7.54076,-1.16332 11.12461,0c3.58385,1.16332 6.78584,3.4921 9,6.53888c2.21416,3.04678 3.4405,6.81156 3.43769,10.58013c-0.00281,3.76858 -1.23477,7.54096 -3.43769,10.58013c-2.20293,3.03918 -5.37682,5.34516 -9,6.53888c-3.62318,1.19372 -7.69563,1.27519 -11.12461,0c-3.42898,-1.27519 -6.21449,-3.90704 -9,-6.53888c-2.78551,-2.63185 5.8884,-6.60599 14.56231,-10.58013" fill="url(#myGrad)" stroke="url(#myGrad)" stroke-width="0.6" stroke-linecap="round"/><path d="M1120.8275,285.5c0.08131,0.70516 0.16263,1.41033 -0.08754,2.11603c-0.25017,0.7057 -0.83182,1.41194 -1.61459,1.87841c-0.78277,0.46647 -1.76666,0.69317 -2.78115,0.57063c-1.01449,-0.12253 -2.05958,-0.5943 -2.88541,-1.39103c-0.82583,-0.79673 -1.4324,-1.91844 -1.63131,-3.17404c-0.19891,-1.2556 0.00983,-2.64511 0.66049,-3.87938c0.65066,-1.23427 1.74324,-2.31332 3.11459,-2.96822c1.37135,-0.6549 3.02148,-0.88566 4.63525,-0.57063c1.61378,0.31503 3.19121,1.17585 4.38541,2.48084c1.1942,1.30499 2.00518,3.05415 2.20426,4.9374c0.19908,1.88325 -0.21375,3.90058 -1.23344,5.64274c-1.01968,1.74216 -2.64623,3.20916 -4.61459,4.05804c-1.96836,0.84888 -4.27855,1.07965 -6.48936,0.57063c-2.2108,-0.50901 -4.32223,-1.75781 -5.88541,-3.57066c-1.56318,-1.81285 -2.57813,-4.18976 -2.77721,-6.70075c-0.19908,-2.51099 0.41772,-5.15607 1.80639,-7.40609c1.38866,-2.25002 3.5492,-4.10499 6.11459,-5.14785c2.56539,-1.04286 5.53564,-1.27363 8.34346,-0.57063c2.80782,0.70299 5.45321,2.33975 7.38541,4.66047c1.9322,2.32072 3.15122,5.32542 3.35016,8.46411c0.19894,3.13869 -0.6222,6.41137 -2.37933,9.16945c-1.75713,2.75808 -4.45026,5.00156 -7.61459,6.23767c-3.16433,1.23611 -6.79985,1.46484 -10.19756,0.57063c-3.39771,-0.8942 -6.55759,-2.91135 -8.88541,-5.75029c-2.32782,-2.83894 -3.82357,-6.49968 -3.9231,-10.22746c-0.09953,-3.72779 1.19715,-7.52262 3.43769,-10.58013c2.24054,-3.05751 5.42494,-5.37771 9,-6.53888c3.57506,-1.16117 7.54076,-1.16332 11.12461,0c3.58385,1.16332 6.78584,3.4921 9,6.53888c2.21416,3.04678 3.4405,6.81156 3.43769,10.58013c-0.00281,3.76858 -1.23477,7.54096 -3.43769,10.58013c-2.20293,3.03918 -5.37682,5.34516 -9,6.53888c-3.62318,1.19372 -7.69563,1.27519 -11.12461,0c-3.42898,-1.27519 -6.21449,-3.90704 -9,-6.53888c-2.78551,-2.63185 5.8884,-6.60599 14.56231,-10.58013" fill="url(#myGrad)" stroke="url(#myGrad)" stroke-width="0.6" stroke-linecap="round"/><path d="M1120.8275,885.5c0.08131,0.70516 0.16263,1.41033 -0.08754,2.11603c-0.25017,0.7057 -0.83182,1.41194 -1.61459,1.87841c-0.78277,0.46647 -1.76666,0.69317 -2.78115,0.57063c-1.01449,-0.12253 -2.05958,-0.5943 -2.88541,-1.39103c-0.82583,-0.79673 -1.4324,-1.91844 -1.63131,-3.17404c-0.19891,-1.2556 0.00983,-2.64511 0.66049,-3.87938c0.65066,-1.23427 1.74324,-2.31332 3.11459,-2.96822c1.37135,-0.6549 3.02148,-0.88566 4.63525,-0.57063c1.61378,0.31503 3.19121,1.17585 4.38541,2.48084c1.1942,1.30499 2.00518,3.05415 2.20426,4.9374c0.19908,1.88325 -0.21375,3.90058 -1.23344,5.64274c-1.01968,1.74216 -2.64623,3.20916 -4.61459,4.05804c-1.96836,0.84888 -4.27855,1.07965 -6.48936,0.57063c-2.2108,-0.50901 -4.32223,-1.75781 -5.88541,-3.57066c-1.56318,-1.81285 -2.57813,-4.18976 -2.77721,-6.70075c-0.19908,-2.51099 0.41772,-5.15607 1.80639,-7.40609c1.38866,-2.25002 3.5492,-4.10499 6.11459,-5.14785c2.56539,-1.04286 5.53564,-1.27363 8.34346,-0.57063c2.80782,0.70299 5.45321,2.33975 7.38541,4.66047c1.9322,2.32072 3.15122,5.32542 3.35016,8.46411c0.19894,3.13869 -0.6222,6.41137 -2.37933,9.16945c-1.75713,2.75808 -4.45026,5.00156 -7.61459,6.23767c-3.16433,1.23611 -6.79985,1.46484 -10.19756,0.57063c-3.39771,-0.8942 -6.55759,-2.91135 -8.88541,-5.75029c-2.32782,-2.83894 -3.82357,-6.49968 -3.9231,-10.22746c-0.09953,-3.72779 1.19715,-7.52262 3.43769,-10.58013c2.24054,-3.05751 5.42494,-5.37771 9,-6.53888c3.57506,-1.16117 7.54076,-1.16332 11.12461,0c3.58385,1.16332 6.78584,3.4921 9,6.53888c2.21416,3.04678 3.4405,6.81156 3.43769,10.58013c-0.00281,3.76858 -1.23477,7.54096 -3.43769,10.58013c-2.20293,3.03918 -5.37682,5.34516 -9,6.53888c-3.62318,1.19372 -7.69563,1.27519 -11.12461,0c-3.42898,-1.27519 -6.21449,-3.90704 -9,-6.53888c-2.78551,-2.63185 5.8884,-6.60599 14.56231,-10.58013" fill="url(#myGrad)" stroke="url(#myGrad)" stroke-width="0.6" stroke-linecap="round"/><path d="M520.8275,885.5c0.08131,0.70516 0.16263,1.41033 -0.08754,2.11603c-0.25017,0.7057 -0.83182,1.41194 -1.61459,1.87841c-0.78277,0.46647 -1.76666,0.69317 -2.78115,0.57063c-1.01449,-0.12253 -2.05958,-0.5943 -2.88541,-1.39103c-0.82583,-0.79673 -1.4324,-1.91844 -1.63131,-3.17404c-0.19891,-1.2556 0.00983,-2.64511 0.66049,-3.87938c0.65066,-1.23427 1.74324,-2.31332 3.11459,-2.96822c1.37135,-0.6549 3.02148,-0.88566 4.63525,-0.57063c1.61378,0.31503 3.19121,1.17585 4.38541,2.48084c1.1942,1.30499 2.00518,3.05415 2.20426,4.9374c0.19908,1.88325 -0.21375,3.90058 -1.23344,5.64274c-1.01968,1.74216 -2.64623,3.20916 -4.61459,4.05804c-1.96836,0.84888 -4.27855,1.07965 -6.48936,0.57063c-2.2108,-0.50901 -4.32223,-1.75781 -5.88541,-3.57066c-1.56318,-1.81285 -2.57813,-4.18976 -2.77721,-6.70075c-0.19908,-2.51099 0.41772,-5.15607 1.80639,-7.40609c1.38866,-2.25002 3.5492,-4.10499 6.11459,-5.14785c2.56539,-1.04286 5.53564,-1.27363 8.34346,-0.57063c2.80782,0.70299 5.45321,2.33975 7.38541,4.66047c1.9322,2.32072 3.15122,5.32542 3.35016,8.46411c0.19894,3.13869 -0.6222,6.41137 -2.37933,9.16945c-1.75713,2.75808 -4.45026,5.00156 -7.61459,6.23767c-3.16433,1.23611 -6.79985,1.46484 -10.19756,0.57063c-3.39771,-0.8942 -6.55759,-2.91135 -8.88541,-5.75029c-2.32782,-2.83894 -3.82357,-6.49968 -3.9231,-10.22746c-0.09953,-3.72779 1.19715,-7.52262 3.43769,-10.58013c2.24054,-3.05751 5.42494,-5.37771 9,-6.53888c3.57506,-1.16117 7.54076,-1.16332 11.12461,0c3.58385,1.16332 6.78584,3.4921 9,6.53888c2.21416,3.04678 3.4405,6.81156 3.43769,10.58013c-0.00281,3.76858 -1.23477,7.54096 -3.43769,10.58013c-2.20293,3.03918 -5.37682,5.34516 -9,6.53888c-3.62318,1.19372 -7.69563,1.27519 -11.12461,0c-3.42898,-1.27519 -6.21449,-3.90704 -9,-6.53888c-2.78551,-2.63185 5.8884,-6.60599 14.56231,-10.58013" fill="url(#myGrad)" stroke="url(#myGrad)" stroke-width="0.6" stroke-linecap="round"/><path d="M517.8275,1035.5l0,-150" fill="none" stroke="url(#myGrad)" stroke-width="6" stroke-linecap="round"/><path d="M517.8275,885.5h600" fill="none" stroke="url(#myGrad)" stroke-width="6" stroke-linecap="round"/><path d="M1117.8275,885.5v150" fill="none" stroke="url(#myGrad)" stroke-width="6" stroke-linecap="round"/><path d="M760.8275,1035.5l-120,60" fill="none" stroke="url(#myGrad)" stroke-width="6" stroke-linecap="round"/><path d="M763.8275,1035.5c0.08131,0.70516 0.16263,1.41033 -0.08754,2.11603c-0.25017,0.7057 -0.83182,1.41194 -1.61459,1.87841c-0.78277,0.46647 -1.76666,0.69317 -2.78115,0.57063c-1.01449,-0.12253 -2.05958,-0.5943 -2.88541,-1.39103c-0.82583,-0.79673 -1.4324,-1.91844 -1.63131,-3.17404c-0.19891,-1.2556 0.00983,-2.64511 0.66049,-3.87938c0.65066,-1.23427 1.74324,-2.31332 3.11459,-2.96822c1.37135,-0.6549 3.02148,-0.88566 4.63525,-0.57063c1.61378,0.31503 3.19121,1.17585 4.38541,2.48084c1.1942,1.30499 2.00518,3.05415 2.20426,4.9374c0.19908,1.88325 -0.21375,3.90058 -1.23344,5.64274c-1.01968,1.74216 -2.64623,3.20916 -4.61459,4.05804c-1.96836,0.84888 -4.27855,1.07965 -6.48936,0.57063c-2.2108,-0.50901 -4.32223,-1.75781 -5.88541,-3.57066c-1.56318,-1.81285 -2.57813,-4.18976 -2.77721,-6.70075c-0.19908,-2.51099 0.41772,-5.15607 1.80639,-7.40609c1.38866,-2.25002 3.5492,-4.10499 6.11459,-5.14785c2.56539,-1.04286 5.53564,-1.27363 8.34346,-0.57063c2.80782,0.70299 5.45321,2.33975 7.38541,4.66047c1.9322,2.32072 3.15122,5.32542 3.35016,8.46411c0.19894,3.13869 -0.6222,6.41137 -2.37933,9.16945c-1.75713,2.75808 -4.45026,5.00156 -7.61459,6.23767c-3.16433,1.23611 -6.79985,1.46484 -10.19756,0.57063c-3.39771,-0.8942 -6.55759,-2.91135 -8.88541,-5.75029c-2.32782,-2.83894 -3.82357,-6.49968 -3.9231,-10.22746c-0.09953,-3.72779 1.19715,-7.52262 3.43769,-10.58013c2.24054,-3.05751 5.42494,-5.37771 9,-6.53888c3.57506,-1.16117 7.54076,-1.16332 11.12461,0c3.58385,1.16332 6.78584,3.4921 9,6.53888c2.21416,3.04678 3.4405,6.81156 3.43769,10.58013c-0.00281,3.76858 -1.23477,7.54096 -3.43769,10.58013c-2.20293,3.03918 -5.37682,5.34516 -9,6.53888c-3.62318,1.19372 -7.69563,1.27519 -11.12461,0c-3.42898,-1.27519 -6.21449,-3.90704 -9,-6.53888c-2.78551,-2.63185 5.8884,-6.60599 14.56231,-10.58013" fill="url(#myGrad)" stroke="url(#myGrad)" stroke-width="0.6" stroke-linecap="round"/><path d="M643.8275,1035.5c0.08131,0.70516 0.16263,1.41033 -0.08754,2.11603c-0.25017,0.7057 -0.83182,1.41194 -1.61459,1.87841c-0.78277,0.46647 -1.76666,0.69317 -2.78115,0.57063c-1.01449,-0.12253 -2.05958,-0.5943 -2.88541,-1.39103c-0.82583,-0.79673 -1.4324,-1.91844 -1.63131,-3.17404c-0.19891,-1.2556 0.00983,-2.64511 0.66049,-3.87938c0.65066,-1.23427 1.74324,-2.31332 3.11459,-2.96822c1.37135,-0.6549 3.02148,-0.88566 4.63525,-0.57063c1.61378,0.31503 3.19121,1.17585 4.38541,2.48084c1.1942,1.30499 2.00518,3.05415 2.20426,4.9374c0.19908,1.88325 -0.21375,3.90058 -1.23344,5.64274c-1.01968,1.74216 -2.64623,3.20916 -4.61459,4.05804c-1.96836,0.84888 -4.27855,1.07965 -6.48936,0.57063c-2.2108,-0.50901 -4.32223,-1.75781 -5.88541,-3.57066c-1.56318,-1.81285 -2.57813,-4.18976 -2.77721,-6.70075c-0.19908,-2.51099 0.41772,-5.15607 1.80639,-7.40609c1.38866,-2.25002 3.5492,-4.10499 6.11459,-5.14785c2.56539,-1.04286 5.53564,-1.27363 8.34346,-0.57063c2.80782,0.70299 5.45321,2.33975 7.38541,4.66047c1.9322,2.32072 3.15122,5.32542 3.35016,8.46411c0.19894,3.13869 -0.6222,6.41137 -2.37933,9.16945c-1.75713,2.75808 -4.45026,5.00156 -7.61459,6.23767c-3.16433,1.23611 -6.79985,1.46484 -10.19756,0.57063c-3.39771,-0.8942 -6.55759,-2.91135 -8.88541,-5.75029c-2.32782,-2.83894 -3.82357,-6.49968 -3.9231,-10.22746c-0.09953,-3.72779 1.19715,-7.52262 3.43769,-10.58013c2.24054,-3.05751 5.42494,-5.37771 9,-6.53888c3.57506,-1.16117 7.54076,-1.16332 11.12461,0c3.58385,1.16332 6.78584,3.4921 9,6.53888c2.21416,3.04678 3.4405,6.81156 3.43769,10.58013c-0.00281,3.76858 -1.23477,7.54096 -3.43769,10.58013c-2.20293,3.03918 -5.37682,5.34516 -9,6.53888c-3.62318,1.19372 -7.69563,1.27519 -11.12461,0c-3.42898,-1.27519 -6.21449,-3.90704 -9,-6.53888c-2.78551,-2.63185 5.8884,-6.60599 14.56231,-10.58013" fill="url(#myGrad)" stroke="url(#myGrad)" stroke-width="0.6" stroke-linecap="round"/><path d="M1117.8275,1035.5h-357" fill="none" stroke="url(#myGrad)" stroke-width="6" stroke-linecap="round"/><path d="M640.8275,1035.5h-123" fill="none" stroke="url(#myGrad)" stroke-width="6" stroke-linecap="round"/><path d="M302.8275,135.5c0,-33.13708 26.86292,-60 60,-60c33.13708,0 60,26.86292 60,60c0,33.13708 -26.86292,60 -60,60c-33.13708,0 -60,-26.86292 -60,-60z" fill="none" stroke="url(#myGrad)" stroke-width="6" stroke-linecap="round"/><path d="M362.8275,75.5v120" fill="none" stroke="url(#myGrad)" stroke-width="6" stroke-linecap="round"/><path d="M217.8275,135.5h85" fill="none" stroke="url(#myGrad)" stroke-width="6" stroke-linecap="round"/><path d="M422.8275,135.5h695" fill="none" stroke="url(#myGrad)" stroke-width="6" stroke-linecap="round"/><path d="M1117.8275,135.5l0,150" fill="none" stroke="url(#myGrad)" stroke-width="6" stroke-linecap="round"/><path d="M658.8275,345.5v-120" fill="none" stroke="url(#myGrad)" stroke-width="6" stroke-linecap="round"/><path d="M616.8275,315.5v-60" fill="none" stroke="url(#myGrad)" stroke-width="6" stroke-linecap="round"/><path d="M1117.8275,285.5h-459" fill="none" stroke="url(#myGrad)" stroke-width="6" stroke-linecap="round"/><path d="M616.8275,285.5h-399" fill="none" stroke="url(#myGrad)" stroke-width="6" stroke-linecap="round"/><path d="M217.8275,285.5v-150" fill="none" stroke="url(#myGrad)" stroke-width="6" stroke-linecap="round"/><path d="M809.8275,885.5c0.08131,0.70516 0.16263,1.41033 -0.08754,2.11603c-0.25017,0.7057 -0.83182,1.41194 -1.61459,1.87841c-0.78277,0.46647 -1.76666,0.69317 -2.78115,0.57063c-1.01449,-0.12253 -2.05958,-0.5943 -2.88541,-1.39103c-0.82583,-0.79673 -1.4324,-1.91844 -1.63131,-3.17404c-0.19891,-1.2556 0.00983,-2.64511 0.66049,-3.87938c0.65066,-1.23427 1.74324,-2.31332 3.11459,-2.96822c1.37135,-0.6549 3.02148,-0.88566 4.63525,-0.57063c1.61378,0.31503 3.19121,1.17585 4.38541,2.48084c1.1942,1.30499 2.00518,3.05415 2.20426,4.9374c0.19908,1.88325 -0.21375,3.90058 -1.23344,5.64274c-1.01968,1.74216 -2.64623,3.20916 -4.61459,4.05804c-1.96836,0.84888 -4.27855,1.07965 -6.48936,0.57063c-2.2108,-0.50901 -4.32223,-1.75781 -5.88541,-3.57066c-1.56318,-1.81285 -2.57813,-4.18976 -2.77721,-6.70075c-0.19908,-2.51099 0.41772,-5.15607 1.80639,-7.40609c1.38866,-2.25002 3.5492,-4.10499 6.11459,-5.14785c2.56539,-1.04286 5.53564,-1.27363 8.34346,-0.57063c2.80782,0.70299 5.45321,2.33975 7.38541,4.66047c1.9322,2.32072 3.15122,5.32542 3.35016,8.46411c0.19894,3.13869 -0.6222,6.41137 -2.37933,9.16945c-1.75713,2.75808 -4.45026,5.00156 -7.61459,6.23767c-3.16433,1.23611 -6.79985,1.46484 -10.19756,0.57063c-3.39771,-0.8942 -6.55759,-2.91135 -8.88541,-5.75029c-2.32782,-2.83894 -3.82357,-6.49968 -3.9231,-10.22746c-0.09953,-3.72779 1.19715,-7.52262 3.43769,-10.58013c2.24054,-3.05751 5.42494,-5.37771 9,-6.53888c3.57506,-1.16117 7.54076,-1.16332 11.12461,0c3.58385,1.16332 6.78584,3.4921 9,6.53888c2.21416,3.04678 3.4405,6.81156 3.43769,10.58013c-0.00281,3.76858 -1.23477,7.54096 -3.43769,10.58013c-2.20293,3.03918 -5.37682,5.34516 -9,6.53888c-3.62318,1.19372 -7.69563,1.27519 -11.12461,0c-3.42898,-1.27519 -6.21449,-3.90704 -9,-6.53888c-2.78551,-2.63185 5.8884,-6.60599 14.56231,-10.58013" fill="url(#myGrad)" stroke="url(#myGrad)" stroke-width="0.6" stroke-linecap="round"/><path d="M806.8275,885.5v-104h-36" fill="none" stroke="url(#myGrad)" stroke-width="6" stroke-linecap="round"/><path d="M734.8275,781.5c0,-9.94113 8.05887,-18 18,-18c9.94113,0 18,8.05887 18,18c0,9.94113 -8.05887,18 -18,18c-9.94113,0 -18,-8.05887 -18,-18z" fill="none" stroke="url(#myGrad)" stroke-width="6" stroke-linecap="round"/><path d="M811.8275,285.5c0.08131,0.70516 0.16263,1.41033 -0.08754,2.11603c-0.25017,0.7057 -0.83182,1.41194 -1.61459,1.87841c-0.78277,0.46647 -1.76666,0.69317 -2.78115,0.57063c-1.01449,-0.12253 -2.05958,-0.5943 -2.88541,-1.39103c-0.82583,-0.79673 -1.4324,-1.91844 -1.63131,-3.17404c-0.19891,-1.2556 0.00983,-2.64511 0.66049,-3.87938c0.65066,-1.23427 1.74324,-2.31332 3.11459,-2.96822c1.37135,-0.6549 3.02148,-0.88566 4.63525,-0.57063c1.61378,0.31503 3.19121,1.17585 4.38541,2.48084c1.1942,1.30499 2.00518,3.05415 2.20426,4.9374c0.19908,1.88325 -0.21375,3.90058 -1.23344,5.64274c-1.01968,1.74216 -2.64623,3.20916 -4.61459,4.05804c-1.96836,0.84888 -4.27855,1.07965 -6.48936,0.57063c-2.2108,-0.50901 -4.32223,-1.75781 -5.88541,-3.57066c-1.56318,-1.81285 -2.57813,-4.18976 -2.77721,-6.70075c-0.19908,-2.51099 0.41772,-5.15607 1.80639,-7.40609c1.38866,-2.25002 3.5492,-4.10499 6.11459,-5.14785c2.56539,-1.04286 5.53564,-1.27363 8.34346,-0.57063c2.80782,0.70299 5.45321,2.33975 7.38541,4.66047c1.9322,2.32072 3.15122,5.32542 3.35016,8.46411c0.19894,3.13869 -0.6222,6.41137 -2.37933,9.16945c-1.75713,2.75808 -4.45026,5.00156 -7.61459,6.23767c-3.16433,1.23611 -6.79985,1.46484 -10.19756,0.57063c-3.39771,-0.8942 -6.55759,-2.91135 -8.88541,-5.75029c-2.32782,-2.83894 -3.82357,-6.49968 -3.9231,-10.22746c-0.09953,-3.72779 1.19715,-7.52262 3.43769,-10.58013c2.24054,-3.05751 5.42494,-5.37771 9,-6.53888c3.57506,-1.16117 7.54076,-1.16332 11.12461,0c3.58385,1.16332 6.78584,3.4921 9,6.53888c2.21416,3.04678 3.4405,6.81156 3.43769,10.58013c-0.00281,3.76858 -1.23477,7.54096 -3.43769,10.58013c-2.20293,3.03918 -5.37682,5.34516 -9,6.53888c-3.62318,1.19372 -7.69563,1.27519 -11.12461,0c-3.42898,-1.27519 -6.21449,-3.90704 -9,-6.53888c-2.78551,-2.63185 5.8884,-6.60599 14.56231,-10.58013" fill="url(#myGrad)" stroke="url(#myGrad)" stroke-width="0.6" stroke-linecap="round"/><path d="M808.8275,285.5v98h53" fill="none" stroke="url(#myGrad)" stroke-width="6" stroke-linecap="round"/><path d="M861.8275,383.5c0,-9.94113 8.05887,-18 18,-18c9.94113,0 18,8.05887 18,18c0,9.94113 -8.05887,18 -18,18c-9.94113,0 -18,-8.05887 -18,-18z" fill="none" stroke="url(#myGrad)" stroke-width="6" stroke-linecap="round"/><path d="M933.8275,1035.5c0.08131,0.70516 0.16263,1.41033 -0.08754,2.11603c-0.25017,0.7057 -0.83182,1.41194 -1.61459,1.87841c-0.78277,0.46647 -1.76666,0.69317 -2.78115,0.57063c-1.01449,-0.12253 -2.05958,-0.5943 -2.88541,-1.39103c-0.82583,-0.79673 -1.4324,-1.91844 -1.63131,-3.17404c-0.19891,-1.2556 0.00983,-2.64511 0.66049,-3.87938c0.65066,-1.23427 1.74324,-2.31332 3.11459,-2.96822c1.37135,-0.6549 3.02148,-0.88566 4.63525,-0.57063c1.61378,0.31503 3.19121,1.17585 4.38541,2.48084c1.1942,1.30499 2.00518,3.05415 2.20426,4.9374c0.19908,1.88325 -0.21375,3.90058 -1.23344,5.64274c-1.01968,1.74216 -2.64623,3.20916 -4.61459,4.05804c-1.96836,0.84888 -4.27855,1.07965 -6.48936,0.57063c-2.2108,-0.50901 -4.32223,-1.75781 -5.88541,-3.57066c-1.56318,-1.81285 -2.57813,-4.18976 -2.77721,-6.70075c-0.19908,-2.51099 0.41772,-5.15607 1.80639,-7.40609c1.38866,-2.25002 3.5492,-4.10499 6.11459,-5.14785c2.56539,-1.04286 5.53564,-1.27363 8.34346,-0.57063c2.80782,0.70299 5.45321,2.33975 7.38541,4.66047c1.9322,2.32072 3.15122,5.32542 3.35016,8.46411c0.19894,3.13869 -0.6222,6.41137 -2.37933,9.16945c-1.75713,2.75808 -4.45026,5.00156 -7.61459,6.23767c-3.16433,1.23611 -6.79985,1.46484 -10.19756,0.57063c-3.39771,-0.8942 -6.55759,-2.91135 -8.88541,-5.75029c-2.32782,-2.83894 -3.82357,-6.49968 -3.9231,-10.22746c-0.09953,-3.72779 1.19715,-7.52262 3.43769,-10.58013c2.24054,-3.05751 5.42494,-5.37771 9,-6.53888c3.57506,-1.16117 7.54076,-1.16332 11.12461,0c3.58385,1.16332 6.78584,3.4921 9,6.53888c2.21416,3.04678 3.4405,6.81156 3.43769,10.58013c-0.00281,3.76858 -1.23477,7.54096 -3.43769,10.58013c-2.20293,3.03918 -5.37682,5.34516 -9,6.53888c-3.62318,1.19372 -7.69563,1.27519 -11.12461,0c-3.42898,-1.27519 -6.21449,-3.90704 -9,-6.53888c-2.78551,-2.63185 5.8884,-6.60599 14.56231,-10.58013" fill="url(#myGrad)" stroke="url(#myGrad)" stroke-width="0.6" stroke-linecap="round"/><path d="M930.8275,1035.5v112h59" fill="none" stroke="url(#myGrad)" stroke-width="6" stroke-linecap="round"/><path d="M989.8275,1147.5c0,-9.94113 8.05887,-18 18,-18c9.94113,0 18,8.05887 18,18c0,9.94113 -8.05887,18 -18,18c-9.94113,0 -18,-8.05887 -18,-18z" fill="none" stroke="url(#myGrad)" stroke-width="6" stroke-linecap="round"/><path d="M1417.8275,135.5l0,150" fill="none" stroke="url(#myGrad)" stroke-width="6" stroke-linecap="round"/><path d="M1420.8275,184.5c0.08131,0.70516 0.16263,1.41033 -0.08754,2.11603c-0.25017,0.7057 -0.83182,1.41194 -1.61459,1.87841c-0.78277,0.46647 -1.76666,0.69317 -2.78115,0.57063c-1.01449,-0.12253 -2.05958,-0.5943 -2.88541,-1.39103c-0.82583,-0.79673 -1.4324,-1.91844 -1.63131,-3.17404c-0.19891,-1.2556 0.00983,-2.64511 0.66049,-3.87938c0.65066,-1.23427 1.74324,-2.31332 3.11459,-2.96822c1.37135,-0.6549 3.02148,-0.88566 4.63525,-0.57063c1.61378,0.31503 3.19121,1.17585 4.38541,2.48084c1.1942,1.30499 2.00518,3.05415 2.20426,4.9374c0.19908,1.88325 -0.21375,3.90058 -1.23344,5.64274c-1.01968,1.74216 -2.64623,3.20916 -4.61459,4.05804c-1.96836,0.84888 -4.27855,1.07965 -6.48936,0.57063c-2.2108,-0.50901 -4.32223,-1.75781 -5.88541,-3.57066c-1.56318,-1.81285 -2.57813,-4.18976 -2.77721,-6.70075c-0.19908,-2.51099 0.41772,-5.15607 1.80639,-7.40609c1.38866,-2.25002 3.5492,-4.10499 6.11459,-5.14785c2.56539,-1.04286 5.53564,-1.27363 8.34346,-0.57063c2.80782,0.70299 5.45321,2.33975 7.38541,4.66047c1.9322,2.32072 3.15122,5.32542 3.35016,8.46411c0.19894,3.13869 -0.6222,6.41137 -2.37933,9.16945c-1.75713,2.75808 -4.45026,5.00156 -7.61459,6.23767c-3.16433,1.23611 -6.79985,1.46484 -10.19756,0.57063c-3.39771,-0.8942 -6.55759,-2.91135 -8.88541,-5.75029c-2.32782,-2.83894 -3.82357,-6.49968 -3.9231,-10.22746c-0.09953,-3.72779 1.19715,-7.52262 3.43769,-10.58013c2.24054,-3.05751 5.42494,-5.37771 9,-6.53888c3.57506,-1.16117 7.54076,-1.16332 11.12461,0c3.58385,1.16332 6.78584,3.4921 9,6.53888c2.21416,3.04678 3.4405,6.81156 3.43769,10.58013c-0.00281,3.76858 -1.23477,7.54096 -3.43769,10.58013c-2.20293,3.03918 -5.37682,5.34516 -9,6.53888c-3.62318,1.19372 -7.69563,1.27519 -11.12461,0c-3.42898,-1.27519 -6.21449,-3.90704 -9,-6.53888c-2.78551,-2.63185 5.8884,-6.60599 14.56231,-10.58013" fill="url(#myGrad)" stroke="url(#myGrad)" stroke-width="0.6" stroke-linecap="round"/><path d="M1417.8275,184.5l73,0" fill="none" stroke="url(#myGrad)" stroke-width="6" stroke-linecap="round"/><path d="M1490.8275,184.5c0,-9.94113 8.05887,-18 18,-18c9.94113,0 18,8.05887 18,18c0,9.94113 -8.05887,18 -18,18c-9.94113,0 -18,-8.05887 -18,-18z" fill="none" stroke="url(#myGrad)" stroke-width="6" stroke-linecap="round"/><path d="M1417.8275,285.5h-300" fill="none" stroke="url(#myGrad)" stroke-width="6" stroke-linecap="round"/><path d="M1288.8275,285.5c0.08131,0.70516 0.16263,1.41033 -0.08754,2.11603c-0.25017,0.7057 -0.83182,1.41194 -1.61459,1.87841c-0.78277,0.46647 -1.76666,0.69317 -2.78115,0.57063c-1.01449,-0.12253 -2.05958,-0.5943 -2.88541,-1.39103c-0.82583,-0.79673 -1.4324,-1.91844 -1.63131,-3.17404c-0.19891,-1.2556 0.00983,-2.64511 0.66049,-3.87938c0.65066,-1.23427 1.74324,-2.31332 3.11459,-2.96822c1.37135,-0.6549 3.02148,-0.88566 4.63525,-0.57063c1.61378,0.31503 3.19121,1.17585 4.38541,2.48084c1.1942,1.30499 2.00518,3.05415 2.20426,4.9374c0.19908,1.88325 -0.21375,3.90058 -1.23344,5.64274c-1.01968,1.74216 -2.64623,3.20916 -4.61459,4.05804c-1.96836,0.84888 -4.27855,1.07965 -6.48936,0.57063c-2.2108,-0.50901 -4.32223,-1.75781 -5.88541,-3.57066c-1.56318,-1.81285 -2.57813,-4.18976 -2.77721,-6.70075c-0.19908,-2.51099 0.41772,-5.15607 1.80639,-7.40609c1.38866,-2.25002 3.5492,-4.10499 6.11459,-5.14785c2.56539,-1.04286 5.53564,-1.27363 8.34346,-0.57063c2.80782,0.70299 5.45321,2.33975 7.38541,4.66047c1.9322,2.32072 3.15122,5.32542 3.35016,8.46411c0.19894,3.13869 -0.6222,6.41137 -2.37933,9.16945c-1.75713,2.75808 -4.45026,5.00156 -7.61459,6.23767c-3.16433,1.23611 -6.79985,1.46484 -10.19756,0.57063c-3.39771,-0.8942 -6.55759,-2.91135 -8.88541,-5.75029c-2.32782,-2.83894 -3.82357,-6.49968 -3.9231,-10.22746c-0.09953,-3.72779 1.19715,-7.52262 3.43769,-10.58013c2.24054,-3.05751 5.42494,-5.37771 9,-6.53888c3.57506,-1.16117 7.54076,-1.16332 11.12461,0c3.58385,1.16332 6.78584,3.4921 9,6.53888c2.21416,3.04678 3.4405,6.81156 3.43769,10.58013c-0.00281,3.76858 -1.23477,7.54096 -3.43769,10.58013c-2.20293,3.03918 -5.37682,5.34516 -9,6.53888c-3.62318,1.19372 -7.69563,1.27519 -11.12461,0c-3.42898,-1.27519 -6.21449,-3.90704 -9,-6.53888c-2.78551,-2.63185 5.8884,-6.60599 14.56231,-10.58013" fill="url(#myGrad)" stroke="url(#myGrad)" stroke-width="0.6" stroke-linecap="round"/><path d="M1285.8275,285.5v112" fill="none" stroke="url(#myGrad)" stroke-width="6" stroke-linecap="round"/><path d="M1267.8275,415.5c0,-9.94113 8.05887,-18 18,-18c9.94113,0 18,8.05887 18,18c0,9.94113 -8.05887,18 -18,18c-9.94113,0 -18,-8.05887 -18,-18z" fill="none" stroke="url(#myGrad)" stroke-width="6" stroke-linecap="round"/><path d="M1117.8275,285.5l0,-150" fill="none" stroke="url(#myGrad)" stroke-width="6" stroke-linecap="round"/><path d="M1117.8275,135.5h300" fill="none" stroke="url(#myGrad)" stroke-width="6" stroke-linecap="round"/><path d="M1331.8275,1035.5l-120,60" fill="none" stroke="url(#myGrad)" stroke-width="6" stroke-linecap="round"/><path d="M1334.8275,1035.5c0.08131,0.70516 0.16263,1.41033 -0.08754,2.11603c-0.25017,0.7057 -0.83182,1.41194 -1.61459,1.87841c-0.78277,0.46647 -1.76666,0.69317 -2.78115,0.57063c-1.01449,-0.12253 -2.05958,-0.5943 -2.88541,-1.39103c-0.82583,-0.79673 -1.4324,-1.91844 -1.63131,-3.17404c-0.19891,-1.2556 0.00983,-2.64511 0.66049,-3.87938c0.65066,-1.23427 1.74324,-2.31332 3.11459,-2.96822c1.37135,-0.6549 3.02148,-0.88566 4.63525,-0.57063c1.61378,0.31503 3.19121,1.17585 4.38541,2.48084c1.1942,1.30499 2.00518,3.05415 2.20426,4.9374c0.19908,1.88325 -0.21375,3.90058 -1.23344,5.64274c-1.01968,1.74216 -2.64623,3.20916 -4.61459,4.05804c-1.96836,0.84888 -4.27855,1.07965 -6.48936,0.57063c-2.2108,-0.50901 -4.32223,-1.75781 -5.88541,-3.57066c-1.56318,-1.81285 -2.57813,-4.18976 -2.77721,-6.70075c-0.19908,-2.51099 0.41772,-5.15607 1.80639,-7.40609c1.38866,-2.25002 3.5492,-4.10499 6.11459,-5.14785c2.56539,-1.04286 5.53564,-1.27363 8.34346,-0.57063c2.80782,0.70299 5.45321,2.33975 7.38541,4.66047c1.9322,2.32072 3.15122,5.32542 3.35016,8.46411c0.19894,3.13869 -0.6222,6.41137 -2.37933,9.16945c-1.75713,2.75808 -4.45026,5.00156 -7.61459,6.23767c-3.16433,1.23611 -6.79985,1.46484 -10.19756,0.57063c-3.39771,-0.8942 -6.55759,-2.91135 -8.88541,-5.75029c-2.32782,-2.83894 -3.82357,-6.49968 -3.9231,-10.22746c-0.09953,-3.72779 1.19715,-7.52262 3.43769,-10.58013c2.24054,-3.05751 5.42494,-5.37771 9,-6.53888c3.57506,-1.16117 7.54076,-1.16332 11.12461,0c3.58385,1.16332 6.78584,3.4921 9,6.53888c2.21416,3.04678 3.4405,6.81156 3.43769,10.58013c-0.00281,3.76858 -1.23477,7.54096 -3.43769,10.58013c-2.20293,3.03918 -5.37682,5.34516 -9,6.53888c-3.62318,1.19372 -7.69563,1.27519 -11.12461,0c-3.42898,-1.27519 -6.21449,-3.90704 -9,-6.53888c-2.78551,-2.63185 5.8884,-6.60599 14.56231,-10.58013" fill="url(#myGrad)" stroke="url(#myGrad)" stroke-width="0.6" stroke-linecap="round"/><path d="M1214.8275,1035.5c0.08131,0.70516 0.16263,1.41033 -0.08754,2.11603c-0.25017,0.7057 -0.83182,1.41194 -1.61459,1.87841c-0.78277,0.46647 -1.76666,0.69317 -2.78115,0.57063c-1.01449,-0.12253 -2.05958,-0.5943 -2.88541,-1.39103c-0.82583,-0.79673 -1.4324,-1.91844 -1.63131,-3.17404c-0.19891,-1.2556 0.00983,-2.64511 0.66049,-3.87938c0.65066,-1.23427 1.74324,-2.31332 3.11459,-2.96822c1.37135,-0.6549 3.02148,-0.88566 4.63525,-0.57063c1.61378,0.31503 3.19121,1.17585 4.38541,2.48084c1.1942,1.30499 2.00518,3.05415 2.20426,4.9374c0.19908,1.88325 -0.21375,3.90058 -1.23344,5.64274c-1.01968,1.74216 -2.64623,3.20916 -4.61459,4.05804c-1.96836,0.84888 -4.27855,1.07965 -6.48936,0.57063c-2.2108,-0.50901 -4.32223,-1.75781 -5.88541,-3.57066c-1.56318,-1.81285 -2.57813,-4.18976 -2.77721,-6.70075c-0.19908,-2.51099 0.41772,-5.15607 1.80639,-7.40609c1.38866,-2.25002 3.5492,-4.10499 6.11459,-5.14785c2.56539,-1.04286 5.53564,-1.27363 8.34346,-0.57063c2.80782,0.70299 5.45321,2.33975 7.38541,4.66047c1.9322,2.32072 3.15122,5.32542 3.35016,8.46411c0.19894,3.13869 -0.6222,6.41137 -2.37933,9.16945c-1.75713,2.75808 -4.45026,5.00156 -7.61459,6.23767c-3.16433,1.23611 -6.79985,1.46484 -10.19756,0.57063c-3.39771,-0.8942 -6.55759,-2.91135 -8.88541,-5.75029c-2.32782,-2.83894 -3.82357,-6.49968 -3.9231,-10.22746c-0.09953,-3.72779 1.19715,-7.52262 3.43769,-10.58013c2.24054,-3.05751 5.42494,-5.37771 9,-6.53888c3.57506,-1.16117 7.54076,-1.16332 11.12461,0c3.58385,1.16332 6.78584,3.4921 9,6.53888c2.21416,3.04678 3.4405,6.81156 3.43769,10.58013c-0.00281,3.76858 -1.23477,7.54096 -3.43769,10.58013c-2.20293,3.03918 -5.37682,5.34516 -9,6.53888c-3.62318,1.19372 -7.69563,1.27519 -11.12461,0c-3.42898,-1.27519 -6.21449,-3.90704 -9,-6.53888c-2.78551,-2.63185 5.8884,-6.60599 14.56231,-10.58013" fill="url(#myGrad)" stroke="url(#myGrad)" stroke-width="0.6" stroke-linecap="round"/><path d="M1417.8275,1035.5h-86" fill="none" stroke="url(#myGrad)" stroke-width="6" stroke-linecap="round"/><path d="M1211.8275,1035.5h-94" fill="none" stroke="url(#myGrad)" stroke-width="6" stroke-linecap="round"/><path d="M1117.8275,1035.5v-150" fill="none" stroke="url(#myGrad)" stroke-width="6" stroke-linecap="round"/><path d="M1117.8275,885.5l300,0" fill="none" stroke="url(#myGrad)" stroke-width="6" stroke-linecap="round"/><path d="M1417.8275,885.5v150" fill="none" stroke="url(#myGrad)" stroke-width="6" stroke-linecap="round"/></g></g></svg>